<svg id="圖層_1" data-name="圖層 1" xmlns="http://www.w3.org/2000/svg" xmlns:xlink="http://www.w3.org/1999/xlink" viewBox="0 0 798.83 522.15"><defs><style>.cls-1{fill:url(#未命名漸層_44);}</style><linearGradient id="未命名漸層_44" x1="100.59" y1="500" x2="899.41" y2="500" gradientUnits="userSpaceOnUse"><stop offset="0" stop-color="#a4b9df"/><stop offset="1" stop-color="#e97c7f"/></linearGradient></defs><path class="cls-1" d="M899.41,446l-217-207.05L465.46,446l27.59,26.33H317.84v37h95.05l-74.36,71H296.74l-84.27-80.4,105-100.21,53,50.61h54.48L317.26,347.53,185.57,473.16l-28.63-27.32,160.32-153,52.55,50.21,59.95,57.24h56.35l-168.7-161L100.59,446.13l56.54,54-56.54,54L317.41,761,467.89,617.3h63.9L682.42,761.08,899.41,554l-56.59-54ZM682.7,291.84,844.45,446.22l-28.89,27.57L682.7,347,549.88,473.79,521,446.22ZM787.76,500.35,682.7,600.59l-105-100.24,105-100.26ZM317.47,709.13,155.7,554.75l28.89-27.57L317.47,654l37.36-35.66h57.75ZM493,580.3H393.81l74.39-71h43.95L465.35,554Zm351.48-25.84L682.7,708.84,521,554.46l28.86-27.57L682.7,653.66,815.56,526.89Z" transform="translate(-100.59 -238.92)"/></svg>