<?xml version="1.0" encoding="utf-8"?>
<!-- Generator: Adobe Illustrator 26.0.2, SVG Export Plug-In . SVG Version: 6.00 Build 0)  -->
<svg version="1.1" id="圖層_1" xmlns="http://www.w3.org/2000/svg" xmlns:xlink="http://www.w3.org/1999/xlink" x="0px" y="0px"
	 viewBox="0 0 1000 1000" style="enable-background:new 0 0 1000 1000;" xml:space="preserve">
<style type="text/css">
	.st0{fill:url(#SVGID_1_);}
</style>
<linearGradient id="SVGID_1_" gradientUnits="userSpaceOnUse" x1="100.5868" y1="500" x2="899.4132" y2="500">
	<stop  offset="0" style="stop-color:#A4B9DF"/>
	<stop  offset="1" style="stop-color:#E97C7F"/>
</linearGradient>
<path class="st0" d="M899.41,445.97L682.42,238.92L465.46,445.97l27.58,26.33H317.84v37h95.05l-74.36,71h-41.79l-84.27-80.4
	l104.99-100.21l53,50.61h54.48L317.26,347.53L185.57,473.16l-28.63-27.33l160.32-152.99l52.55,50.21l59.95,57.24h56.36
	l-168.7-161.04L100.59,446.13l56.54,53.99l-56.54,53.96l216.82,206.87L467.89,617.3h63.9l150.64,143.78l216.99-207.05l-56.59-54.01
	L899.41,445.97z M682.7,291.84l161.74,154.38l-28.89,27.57L682.7,347.02L549.88,473.79l-28.86-27.57L682.7,291.84z M787.76,500.35
	L682.7,600.59l-105-100.24l105-100.27L787.76,500.35z M317.47,709.13L155.7,554.75l28.89-27.57l132.88,126.77l37.36-35.65h57.75
	L317.47,709.13z M492.97,580.3h-99.16l74.39-71h43.95l-46.8,44.67L492.97,580.3z M844.45,554.46L682.7,708.84L521.02,554.46
	l28.86-27.57L682.7,653.66l132.85-126.77L844.45,554.46z"/>
</svg>
